<?xml version="1.0" encoding="UTF-8" standalone="no"?>
<!-- Created with Inkscape (http://www.inkscape.org/) -->

<svg
   xmlns:dc="http://purl.org/dc/elements/1.1/"
   xmlns:cc="http://creativecommons.org/ns#"
   xmlns:rdf="http://www.w3.org/1999/02/22-rdf-syntax-ns#"
   xmlns:svg="http://www.w3.org/2000/svg"
   xmlns="http://www.w3.org/2000/svg"
   xmlns:inkscape="http://www.inkscape.org/namespaces/inkscape"
   version="1.1"
   width="547.6875"
   height="178.5"
   id="svg2"
   xml:space="preserve"><metadata
     id="metadata8"><rdf:RDF><cc:Work
         rdf:about=""><dc:format>image/svg+xml</dc:format><dc:type
           rdf:resource="http://purl.org/dc/dcmitype/StillImage" /></cc:Work></rdf:RDF></metadata><defs
     id="defs6" /><g
     transform="matrix(1.25,0,0,-1.25,0,178.5)"
     id="g10"><g
       transform="scale(0.1,0.1)"
       id="g12"><path
         d="m 2126.05,0 -0.29,0 C 1798.3,0 1651.8,226.371 1651.8,450.688 c 0,44.14 34.6,78.71 78.78,78.71 l 195.72,0 c 44.18,0 78.75,-34.57 78.75,-78.71 0,-22.868 21.47,-115.239 120.53,-115.239 l -1.15,0 1.15,0 c 72.41,0 131.1,48.789 131.1,108.989 0,60.175 -48.78,108.964 -108.96,108.964 l -80.83,0 c -44.18,0 -78.81,34.61 -78.81,78.789 l 0,177.93 c 0,44.141 34.63,78.75 78.81,78.75 l 58.69,0 c 100.25,0 115.22,62.168 115.22,99.199 0,43.83 -40.06,104.51 -115.22,104.51 -66.83,0 -113.39,-66.33 -113.39,-125.877 0,-44.219 -34.62,-78.808 -78.79,-78.808 l -193.93,0 c -44.19,0 -78.77,34.589 -78.77,78.808 0,267.307 195.52,461.347 464.88,461.347 267.08,0 468.49,-189.2 468.49,-439.98 0,-127.285 -59.07,-213.066 -112.81,-264.726 80.9,-73.789 128.81,-181.328 128.81,-290.528 0,-118.316 -43.71,-225.957 -123.08,-302.988 C 2400.47,45.8398 2275.65,0.941406 2126.05,0"
         inkscape:connector-curvature="0"
         id="path14"
         style="fill:#231f20;fill-opacity:1;fill-rule:nonzero;stroke:none" /><path
         d="m 3140.73,309.891 c -86.88,0 -160.97,58.839 -157.3,134.996 3.59,74.472 56.78,135 157.3,135 100.52,0 153.71,-60.528 157.29,-135 3.67,-76.157 -70.42,-134.996 -157.29,-134.996 z m -1.76,807.909 3.55,0 c 91.61,0 140.41,-75.35 140.41,-129.73 0,-113.789 -108.84,-122.597 -142.2,-122.597 -33.35,0 -142.17,8.808 -142.17,122.597 0,54.38 48.8,129.73 140.41,129.73 z m 359.24,-394.456 c 53.72,51.699 112.76,137.441 112.76,264.726 0,250.78 -201.39,439.98 -468.45,439.98 l -3.55,0 c -267.06,0 -468.45,-189.2 -468.45,-439.98 0,-127.285 59.03,-213.027 112.76,-264.726 -80.88,-73.75 -128.8,-181.25 -128.8,-290.528 0,-118.597 43.81,-226.464 123.3,-303.656 C 2864.82,44.6719 2990.33,0 3140.73,0 c 150.44,0 275.94,44.6719 362.97,129.16 79.51,77.192 123.29,185.02 123.29,303.656 0,109.239 -47.9,216.778 -128.78,290.528"
         inkscape:connector-curvature="0"
         id="path16"
         style="fill:#231f20;fill-opacity:1;fill-rule:nonzero;stroke:none" /><path
         d="M 1094.44,0 C 768.207,0 592.191,231.262 592.191,448.859 c 0,44.453 35.336,80.547 78.789,80.547 l 195.731,0 c 44.894,0 78.75,-33.836 78.75,-78.711 0,-51.906 68.739,-115.246 148.979,-115.246 95.84,0 150.8,67.289 150.8,184.594 0,104.043 -60.58,173.934 -150.8,173.934 -40.35,0 -113.448,-10.536 -149.491,-81.133 -13.344,-26.739 -40.601,-43.438 -71.137,-43.438 l -193.953,0 c -44.175,0 -78.75,34.621 -78.75,78.75 l 0.391,7.414 79.902,682.05 c 2.692,41.09 36.489,72.63 78.516,72.63 l 679.732,0 c 44.17,0 78.79,-34.58 78.79,-78.75 l 0,-179.75 c 0,-43.86 -35.4,-77 -82.35,-77 l -436.563,0 -7.609,-67.54 c 40.942,14.4 83.022,22.24 120.332,22.24 291.53,0 495.14,-209.485 495.14,-509.407 C 1607.39,209.02 1401.26,0 1094.44,0"
         inkscape:connector-curvature="0"
         id="path18"
         style="fill:#231f20;fill-opacity:1;fill-rule:nonzero;stroke:none" /><path
         d="m 4381.45,336.949 c 0,-183.82 -149.02,-332.80056 -332.8,-332.80056 -183.81,0 -332.82,148.98056 -332.82,332.80056 0,183.824 149.01,332.828 332.82,332.828 183.78,0 332.8,-149.004 332.8,-332.828"
         inkscape:connector-curvature="0"
         id="path20"
         style="fill:#5e2590;fill-opacity:1;fill-rule:nonzero;stroke:none" /><path
         d="m 4381.45,1091.04 c 0,-183.802 -149.02,-332.79 -332.8,-332.79 -183.81,0 -332.82,148.988 -332.82,332.79 0,183.83 149.01,332.84 332.82,332.84 183.78,0 332.8,-149.01 332.8,-332.84"
         inkscape:connector-curvature="0"
         id="path22"
         style="fill:#80cc28;fill-opacity:1;fill-rule:nonzero;stroke:none" /><path
         d="m 293.176,88.7188 199.445,0.0117 c 2.129,0 3.512,-1.3907 3.512,-3.5196 L 496.133,7 c -0.004,-1.42188 -1.371,-2.85156 -3.504,-2.85156 l -349.57,0 c -2.075,0 -3.508,1.42968 -3.508,2.85156 l 0,67.6484 c 0,4.1914 1.433,5.6211 4.238,7.0235 l 21.117,7.0586 c 2.809,1.4101 3.516,4.2187 1.438,6.3398 -21.168,21.1597 -33.856,45.1017 -33.86,78.1917 l 0.004,38.789 c -0.004,2.109 1.457,3.519 3.563,3.519 l 73.969,0 c 2.136,-0.011 3.5,-1.41 3.496,-3.531 l 0.004,-45.801 c 0,-54.957 37.371,-77.5192 79.656,-77.5192"
         inkscape:connector-curvature="0"
         id="path24"
         style="fill:#231f20;fill-opacity:1;fill-rule:nonzero;stroke:none" /><path
         d="m 351.715,463.773 c -4.957,0 -5.695,0 -5.695,-5.683 l 0,-78.199 c 2.792,-62.711 25.367,-73.301 43.722,-73.289 14.801,-0.012 35.922,12.679 35.922,54.968 -0.012,72.594 -40.852,100.766 -73.949,102.203 z M 503.184,361.578 c 0,-95.816 -49.356,-139.519 -113.454,-139.527 -60.582,0 -114.168,51.437 -114.168,154.308 0,30.321 0,56.399 0,66.243 0,14.101 -8.437,21.171 -15.519,21.171 -14.793,0 -50.016,-4.933 -50.023,-74.035 0,-53.539 22.546,-69.039 46.562,-71.16 2.031,0 3.461,-1.398 3.469,-3.539 l -0.008,-76.789 c 0.008,-2.102 -1.422,-3.5 -3.461,-3.5 -83.227,0 -124.098,71.84 -124.094,155 0,97.246 45.789,158.574 133.938,158.555 l 226.207,0.019 c 2.812,-0.019 3.5,-2.109 3.5,-3.527 l 0,-69.063 c 0,-2.129 -1.371,-4.199 -3.504,-4.91 l -22.547,-7.051 c -2.82,-1.437 -2.82,-4.941 -0.004,-7.804 14.067,-14.063 33.102,-53.5 33.106,-94.391"
         inkscape:connector-curvature="0"
         id="path26"
         style="fill:#231f20;fill-opacity:1;fill-rule:nonzero;stroke:none" /><path
         d="m 425.66,751.32 c 0.004,56.375 -44.398,83.84 -107.801,83.848 -70.48,-0.008 -107.839,-27.473 -107.839,-83.856 0,-59.902 44.429,-90.929 107.839,-90.929 63.403,0.012 107.805,31.027 107.801,90.937 z m 77.528,-14.105 c -0.004,-99.36 -75.407,-161.363 -185.333,-161.371 -109.96,0.008 -185.367,68.347 -185.367,161.371 0,45.082 19.754,77.484 33.86,91.601 2.824,2.829 1.367,6.352 -2.129,6.352 L 3.57031,835.16 C 1.44141,835.168 0,836.57 0.00390625,838.672 L 0,916.176 c 0.0117188,2.144 1.44531,3.554 3.57031,3.554 l 489.06269,0 c 2.129,0 3.5,-1.41 3.5,-2.828 l 0,-67.652 c 0,-4.238 -0.688,-5.645 -3.504,-7.055 l -22.547,-7.027 c -2.82,-1.426 -2.82,-4.941 -0.004,-7.773 16.93,-16.915 33.106,-54.262 33.11,-90.18"
         inkscape:connector-curvature="0"
         id="path28"
         style="fill:#231f20;fill-opacity:1;fill-rule:nonzero;stroke:none" /><path
         d="m 496.133,963.43 c 0,-2.071 -1.371,-3.516 -3.5,-3.516 l -349.574,0 c -2.075,0 -3.508,1.445 -3.508,3.516 l 0,77.55 c 0,2.11 1.433,3.52 3.508,3.52 l 349.57,0.01 c 2.133,0 3.504,-1.42 3.504,-3.53 l 0,-77.55 z m -396.055,-3.516 c 0,-2.109 -1.3671,-3.512 -3.4999,-3.535 l -93.00779,0.023 c -2.1289,0 -3.57031,1.403 -3.56640375,3.512 l 0,84.586 c 0.00781255,2.11 1.43750375,3.52 3.56640375,3.52 l 93.00779,0 c 2.1328,0.02 3.4999,-1.41 3.4999,-3.52 l 0,-84.586"
         inkscape:connector-curvature="0"
         id="path30"
         style="fill:#231f20;fill-opacity:1;fill-rule:nonzero;stroke:none" /><path
         d="m 210.02,1252.45 c 0,-59.22 41.617,-90.21 107.839,-90.23 66.274,0 107.805,31.01 107.801,90.23 0,59.9 -41.523,90.87 -107.801,90.88 -66.222,-0.01 -107.839,-30.98 -107.839,-90.88 z m 293.16,0 c 0,-109.94 -75.387,-174.8 -185.321,-174.8 -110.636,0 -185.371,64.86 -185.371,174.8 0,109.93 75.407,175.46 185.371,175.44 109.93,0.02 185.325,-65.49 185.321,-175.44"
         inkscape:connector-curvature="0"
         id="path32"
         style="fill:#231f20;fill-opacity:1;fill-rule:nonzero;stroke:none" /></g></g></svg>